<svg width="30" height="30" viewBox="0 0 30 30" fill="none" xmlns="http://www.w3.org/2000/svg">
<path d="M16.5463 26.5547H13.009C12.7919 26.5547 12.5824 26.4744 12.421 26.3292C12.2596 26.1841 12.1576 25.9843 12.1348 25.7684L11.8729 23.3021C11.5072 23.1777 11.15 23.0298 10.8035 22.8592L8.87637 24.4178C8.7077 24.5536 8.49481 24.6224 8.27855 24.611C8.06228 24.5995 7.85786 24.5086 7.70449 24.3557L5.20312 21.8543C5.05021 21.7009 4.9593 21.4965 4.94784 21.2802C4.93638 21.064 5.00517 20.8511 5.14102 20.6824L6.7002 18.7529C6.52933 18.4065 6.38117 18.0493 6.25664 17.6836L3.78633 17.4199C3.57053 17.3971 3.37082 17.2952 3.22564 17.1339C3.08047 16.9726 3.00009 16.7633 3 16.5463V13.0084C3.00009 12.7914 3.08047 12.5821 3.22564 12.4208C3.37082 12.2595 3.57053 12.1576 3.78633 12.1348L6.25254 11.8729C6.37707 11.5072 6.52523 11.15 6.69609 10.8035L5.13691 8.87403C5.00107 8.70536 4.93228 8.49247 4.94374 8.2762C4.9552 8.05994 5.04611 7.85551 5.19902 7.70215L7.70039 5.20078C7.85375 5.04787 8.05818 4.95696 8.27444 4.9455C8.49071 4.93404 8.7036 5.00283 8.87227 5.13867L10.8018 6.69727C11.1483 6.5267 11.5055 6.37873 11.8711 6.2543L12.133 3.78809C12.1555 3.57157 12.2575 3.3711 12.4194 3.22551C12.5812 3.07992 12.7913 2.99956 13.009 3H16.5463C16.7634 2.99995 16.9728 3.08026 17.1343 3.22545C17.2957 3.37064 17.3976 3.57043 17.4205 3.78633L17.6818 6.25254C18.0477 6.37697 18.405 6.52494 18.7518 6.69551L20.6807 5.13692C20.8493 5.00107 21.0622 4.93228 21.2785 4.94374C21.4948 4.9552 21.6992 5.04611 21.8525 5.19903L24.3539 7.70039C24.5068 7.85376 24.5977 8.05818 24.6092 8.27445C24.6207 8.49071 24.5519 8.7036 24.416 8.87227L22.8568 10.8018C23.0275 11.1483 23.1756 11.5055 23.3004 11.8711L25.7666 12.133C25.9823 12.156 26.1819 12.2579 26.3269 12.4192C26.472 12.5805 26.5523 12.7897 26.5523 13.0066V16.5445C26.5528 16.7614 26.473 16.9707 26.3284 17.1323C26.1838 17.2939 25.9845 17.3964 25.7689 17.4199L23.3027 17.6818C23.178 18.0474 23.0298 18.4046 22.8592 18.7512L24.4184 20.6807C24.5542 20.8493 24.623 21.0622 24.6115 21.2785C24.6001 21.4948 24.5092 21.6992 24.3563 21.8525L21.8549 24.3557C21.7015 24.5086 21.4971 24.5995 21.2808 24.611C21.0646 24.6224 20.8517 24.5536 20.683 24.4178L18.7541 22.8592C18.4074 23.0298 18.05 23.1777 17.6842 23.3021L17.4229 25.7684C17.3999 25.9847 17.2976 26.1848 17.1357 26.33C16.9738 26.4753 16.7638 26.5553 16.5463 26.5547ZM13.7982 24.7969H15.7547L15.9943 22.5375C16.0131 22.3607 16.0851 22.1937 16.2009 22.0586C16.3166 21.9236 16.4705 21.8268 16.6424 21.7811C17.2615 21.616 17.8558 21.3691 18.4096 21.0469C18.5638 20.957 18.7417 20.9163 18.9196 20.93C19.0975 20.9437 19.2671 21.0112 19.4057 21.1236L21.1729 22.5516L22.5563 21.1682L21.126 19.4063C21.0136 19.2676 20.946 19.0981 20.9323 18.9202C20.9186 18.7422 20.9594 18.5644 21.0492 18.4102C21.3707 17.8567 21.6169 17.2628 21.7811 16.6441C21.8268 16.4722 21.9237 16.3182 22.0588 16.2025C22.194 16.0867 22.3611 16.0148 22.5381 15.9961L24.7969 15.7559V13.7994L22.5381 13.5592C22.3611 13.5405 22.194 13.4685 22.0588 13.3528C21.9237 13.2371 21.8268 13.0831 21.7811 12.9111C21.6169 12.2923 21.3708 11.6982 21.0492 11.1445C20.9594 10.9903 20.9186 10.8125 20.9323 10.6345C20.946 10.4566 21.0136 10.287 21.126 10.1484L22.5539 8.38125L21.1705 6.99785L19.4033 8.42578C19.2647 8.53819 19.0952 8.60574 18.9172 8.61945C18.7393 8.63316 18.5614 8.59239 18.4072 8.50254C17.8537 8.18126 17.2598 7.93515 16.6412 7.7707C16.4693 7.72499 16.3154 7.62821 16.1997 7.49315C16.084 7.35809 16.012 7.19111 15.9932 7.01426L15.7559 4.75781H13.7982L13.5586 7.01719C13.5398 7.19411 13.4677 7.36115 13.3518 7.49622C13.236 7.63128 13.0819 7.72802 12.91 7.77363C12.2918 7.93883 11.6985 8.18573 11.1457 8.50781C10.9915 8.59766 10.8136 8.63844 10.6357 8.62473C10.4578 8.61102 10.2882 8.54346 10.1496 8.43106L8.38418 7.00078L7.00137 8.38418L8.42988 10.1514C8.5422 10.29 8.60965 10.4596 8.62325 10.6375C8.63686 10.8155 8.59598 10.9933 8.50605 11.1475C8.18503 11.7012 7.93893 12.295 7.77422 12.9135C7.7285 13.0853 7.63172 13.2393 7.49666 13.355C7.3616 13.4707 7.19462 13.5427 7.01777 13.5615L4.7584 13.8018V15.7576L7.01777 15.9979C7.19462 16.0167 7.3616 16.0887 7.49666 16.2044C7.63172 16.3201 7.7285 16.474 7.77422 16.6459C7.9389 17.2637 8.18479 17.857 8.50547 18.4102C8.59539 18.5643 8.63627 18.7422 8.62267 18.9201C8.60906 19.098 8.54161 19.2676 8.4293 19.4063L7.00137 21.1705L8.38477 22.5539L10.1525 21.126C10.2911 21.0136 10.4607 20.946 10.6386 20.9323C10.8166 20.9186 10.9944 20.9594 11.1486 21.0492C11.7019 21.3706 12.2957 21.6167 12.9141 21.7811C13.086 21.8267 13.2401 21.9234 13.3559 22.0585C13.4718 22.1935 13.5439 22.3606 13.5627 22.5375L13.7982 24.7969Z" fill="#CCCCCC"/>
<path d="M14.7773 20.1305C13.7186 20.1304 12.6837 19.8163 11.8035 19.228C10.9232 18.6397 10.2372 17.8037 9.83212 16.8255C9.42705 15.8473 9.32112 14.771 9.52774 13.7326C9.73435 12.6943 10.2442 11.7405 10.9929 10.9919C11.7416 10.2433 12.6954 9.73354 13.7338 9.52704C14.7722 9.32053 15.8485 9.42658 16.8266 9.83176C17.8047 10.2369 18.6407 10.9231 19.2289 11.8034C19.8171 12.6837 20.1311 13.7186 20.1311 14.7773C20.1295 16.1967 19.5649 17.5575 18.5612 18.5611C17.5575 19.5647 16.1967 20.1291 14.7773 20.1305ZM14.7773 11.182C14.0663 11.1821 13.3712 11.3931 12.7801 11.7882C12.1889 12.1834 11.7282 12.7449 11.4561 13.4019C11.1841 14.0589 11.113 14.7817 11.2518 15.4791C11.3906 16.1765 11.733 16.8171 12.2359 17.3198C12.7387 17.8226 13.3793 18.1649 14.0767 18.3036C14.7741 18.4423 15.497 18.3711 16.1539 18.0989C16.8109 17.8268 17.3723 17.366 17.7674 16.7747C18.1624 16.1835 18.3732 15.4884 18.3732 14.7773C18.3722 13.824 17.9929 12.9101 17.3188 12.2361C16.6447 11.562 15.7306 11.183 14.7773 11.182Z" fill="#CCCCCC"/>
</svg>
