<svg width="26" height="20" viewBox="0 0 26 20" fill="none" xmlns="http://www.w3.org/2000/svg">
<path id="path" d="M24.25 8.75L4.7675 8.75L11.3837 2.13375C11.8719 1.64563 11.8719 0.854376 11.3837 0.36625C10.8956 -0.121875 10.1041 -0.121875 9.61594 0.36625L0.865936 9.11625C0.377811 9.60438 0.377811 10.3959 0.865936 10.8838L9.61594 19.6338C9.86 19.8778 10.18 20 10.5 20C10.8197 20 11.1397 19.8778 11.3837 19.6338C11.8719 19.1456 11.8719 18.3541 11.3837 17.8663L4.7675 11.25L24.25 11.25C24.94 11.25 25.5 10.6903 25.5 10C25.5 9.30969 24.9403 8.75 24.25 8.75Z" fill="#ccc"/>
</svg>
