<svg width="30" height="30" viewBox="0 0 30 30" fill="none" xmlns="http://www.w3.org/2000/svg">
<path d="M10 3.75C7.92906 3.75 6.25 5.42906 6.25 7.5V22.5C6.25 24.5709 7.92906 26.25 10 26.25C12.0709 26.25 13.75 24.5709 13.75 22.5V7.5C13.75 5.42906 12.0709 3.75 10 3.75ZM11.25 22.5C11.25 23.1903 10.6903 23.75 10 23.75C9.30969 23.75 8.75 23.1903 8.75 22.5V7.5C8.75 6.80969 9.30969 6.25 10 6.25C10.6903 6.25 11.25 6.80969 11.25 7.5V22.5ZM20 3.75C17.9291 3.75 16.25 5.42906 16.25 7.5V22.5C16.25 24.5709 17.9291 26.25 20 26.25C22.0709 26.25 23.75 24.5709 23.75 22.5V7.5C23.75 5.42906 22.0709 3.75 20 3.75ZM21.25 22.5C21.25 23.1903 20.6903 23.75 20 23.75C19.3097 23.75 18.75 23.1903 18.75 22.5V7.5C18.75 6.80969 19.3097 6.25 20 6.25C20.6903 6.25 21.25 6.80969 21.25 7.5V22.5Z" fill="#CCCCCC"/>
</svg>
