<svg width="30" height="30" viewBox="0 0 30 30" fill="none" xmlns="http://www.w3.org/2000/svg">
<path d="M3.75 16.25H23.2325L16.6163 22.8662C16.1281 23.3544 16.1281 24.1456 16.6163 24.6337C17.1044 25.1219 17.8959 25.1219 18.3841 24.6337L27.1341 15.8837C27.6222 15.3956 27.6222 14.6041 27.1341 14.1162L18.3841 5.36624C18.14 5.12218 17.82 4.99999 17.5 4.99999C17.1803 4.99999 16.8603 5.12218 16.6163 5.36624C16.1281 5.85436 16.1281 6.64593 16.6163 7.13374L23.2325 13.75L3.75 13.75C3.06 13.75 2.5 14.3097 2.5 15C2.5 15.6903 3.05969 16.25 3.75 16.25Z" fill="#ccc"/>
</svg>
