<svg width="30" height="30" viewBox="0 0 30 30" fill="none" xmlns="http://www.w3.org/2000/svg">
<path d="M1.25 5V12.5C1.25 13.1903 1.80969 13.75 2.5 13.75H10C10.6903 13.75 11.25 13.1903 11.25 12.5C11.25 11.8097 10.6903 11.25 10 11.25H5.78469C7.48 9.5975 8.81594 8.29156 9.17875 7.92906C10.1341 6.97375 11.2466 6.23469 12.4863 5.73219C13.6844 5.24625 14.9506 5 16.25 5C17.5494 5 18.8156 5.24625 20.0138 5.73219C21.2534 6.23469 22.3659 6.97406 23.3213 7.92906C24.2763 8.88406 25.0153 9.99656 25.5178 11.2363C26.0037 12.4344 26.25 13.7006 26.25 15C26.25 16.2994 26.0037 17.5656 25.5178 18.7637C25.0153 20.0034 24.2759 21.1159 23.3213 22.0709C22.3659 23.0262 21.2534 23.7653 20.0138 24.2678C18.8156 24.7537 17.5494 25 16.25 25C14.9506 25 13.6844 24.7537 12.4863 24.2678C11.2466 23.7653 10.1341 23.0259 9.17875 22.0709C8.6425 21.5344 8.16844 20.94 7.76937 20.3041C7.38187 19.6856 7.06219 19.0228 6.81937 18.3344C6.59 17.6831 5.87563 17.3416 5.22469 17.5713C4.57375 17.8009 4.23188 18.515 4.46156 19.1659C4.76594 20.0284 5.16594 20.8578 5.65125 21.6319C6.15 22.4275 6.74188 23.17 7.41125 23.8391C8.60406 25.0319 9.99563 25.9556 11.5469 26.5847C12.2925 26.8872 13.0719 27.1181 13.8634 27.2712C14.6475 27.4231 15.4503 27.5 16.25 27.5C17.0497 27.5 17.8525 27.4231 18.6366 27.2712C19.4281 27.1181 20.2075 26.8872 20.9531 26.5847C22.5047 25.9556 23.8959 25.0319 25.0888 23.8391C26.2816 22.6463 27.2056 21.2547 27.8344 19.7031C28.1369 18.9575 28.3678 18.1781 28.5213 17.3866C28.6731 16.6022 28.75 15.7997 28.75 15C28.75 14.2003 28.6731 13.3978 28.5216 12.6134C28.3681 11.8219 28.1372 11.0425 27.8347 10.2969C27.2056 8.74531 26.2819 7.35406 25.0891 6.16125C23.8962 4.96844 22.5047 4.04469 20.9534 3.41563C20.2078 3.11313 19.4284 2.88219 18.6369 2.72906C17.8525 2.57687 17.0497 2.5 16.25 2.5C15.4503 2.5 14.6475 2.57688 13.8634 2.72875C13.0719 2.88188 12.2925 3.11281 11.5469 3.41531C9.99531 4.04437 8.60406 4.96813 7.41125 6.16094C7.03781 6.53438 5.57594 7.96219 3.75 9.74219V5C3.75 4.30969 3.19031 3.75 2.5 3.75C1.80969 3.75 1.25 4.30969 1.25 5Z" fill="#DDDDDD"/>
</svg>
