<svg width="30" height="30" viewBox="0 0 30 30" fill="none" xmlns="http://www.w3.org/2000/svg">
<path d="M28.75 5V12.5C28.75 13.1903 28.1903 13.75 27.5 13.75H20C19.3097 13.75 18.75 13.1903 18.75 12.5C18.75 11.8097 19.3097 11.25 20 11.25H24.2153C22.52 9.5975 21.1841 8.29156 20.8212 7.92906C19.8659 6.97375 18.7534 6.23469 17.5137 5.73219C16.3156 5.24625 15.0494 5 13.75 5C12.4506 5 11.1844 5.24625 9.98625 5.73219C8.74656 6.23469 7.63406 6.97406 6.67875 7.92906C5.72375 8.88406 4.98469 9.99656 4.48219 11.2363C3.99625 12.4344 3.75 13.7006 3.75 15C3.75 16.2994 3.99625 17.5656 4.48219 18.7637C4.98469 20.0034 5.72406 21.1159 6.67875 22.0709C7.63406 23.0262 8.74656 23.7653 9.98625 24.2678C11.1844 24.7537 12.4506 25 13.75 25C15.0494 25 16.3156 24.7537 17.5137 24.2678C18.7534 23.7653 19.8659 23.0259 20.8212 22.0709C21.3575 21.5344 21.8316 20.94 22.2306 20.3041C22.6181 19.6856 22.9378 19.0228 23.1806 18.3344C23.41 17.6831 24.1244 17.3416 24.7753 17.5713C25.4262 17.8009 25.7681 18.515 25.5384 19.1659C25.2341 20.0284 24.8341 20.8578 24.3488 21.6319C23.85 22.4275 23.2581 23.17 22.5887 23.8391C21.3959 25.0319 20.0044 25.9556 18.4531 26.5847C17.7075 26.8872 16.9281 27.1181 16.1366 27.2712C15.3525 27.4231 14.5497 27.5 13.75 27.5C12.9503 27.5 12.1475 27.4231 11.3634 27.2712C10.5719 27.1181 9.7925 26.8872 9.04688 26.5847C7.49531 25.9556 6.10406 25.0319 4.91125 23.8391C3.71844 22.6463 2.79437 21.2547 2.16562 19.7031C1.86312 18.9575 1.63219 18.1781 1.47875 17.3866C1.32687 16.6022 1.25 15.7997 1.25 15C1.25 14.2003 1.32687 13.3978 1.47844 12.6134C1.63187 11.8219 1.86281 11.0425 2.16531 10.2969C2.79437 8.74531 3.71813 7.35406 4.91094 6.16125C6.10375 4.96844 7.49531 4.04469 9.04656 3.41563C9.79219 3.11313 10.5716 2.88219 11.3631 2.72906C12.1475 2.57687 12.9503 2.5 13.75 2.5C14.5497 2.5 15.3525 2.57688 16.1366 2.72875C16.9281 2.88188 17.7075 3.11281 18.4531 3.41531C20.0047 4.04437 21.3959 4.96813 22.5887 6.16094C22.9622 6.53438 24.4241 7.96219 26.25 9.74219V5C26.25 4.30969 26.8097 3.75 27.5 3.75C28.1903 3.75 28.75 4.30969 28.75 5Z" fill="#DDDDDD"/>
</svg>
