<svg width="30" height="30" viewBox="0 0 30 30" fill="none" xmlns="http://www.w3.org/2000/svg">
<path d="M28.3841 26.6162L21.29 19.5222C22.8297 17.5975 23.75 15.1562 23.75 12.5C23.75 6.28687 18.7134 1.25 12.5 1.25C6.28687 1.25 1.25 6.28687 1.25 12.5C1.25 18.7131 6.28687 23.75 12.5 23.75C15.1562 23.75 17.5975 22.8294 19.5222 21.2897L26.6162 28.3838C26.8603 28.6278 27.1803 28.75 27.5 28.75C27.82 28.75 28.14 28.6278 28.3841 28.3838C28.8722 27.8959 28.8722 27.1041 28.3841 26.6162ZM12.5 21.25C7.6675 21.25 3.75 17.3325 3.75 12.5C3.75 7.6675 7.6675 3.75 12.5 3.75C17.3328 3.75 21.25 7.6675 21.25 12.5C21.25 17.3325 17.3328 21.25 12.5 21.25ZM17.5 12.5C17.5 13.1903 16.9406 13.75 16.25 13.75H13.75V16.25C13.75 16.9403 13.1906 17.5 12.5 17.5C11.8097 17.5 11.25 16.9403 11.25 16.25V13.75H8.75C8.05969 13.75 7.5 13.1903 7.5 12.5C7.5 11.8097 8.05969 11.25 8.75 11.25H11.25V8.75C11.25 8.05969 11.8097 7.5 12.5 7.5C13.1906 7.5 13.75 8.05969 13.75 8.75V11.25H16.25C16.9406 11.25 17.5 11.8097 17.5 12.5Z" fill="#CCCCCC"/>
</svg>
