<svg width="30" height="30" viewBox="0 0 30 30" fill="none" xmlns="http://www.w3.org/2000/svg">
<path d="M13.125 24.375H6.91029L13.2844 18.0009L11.9587 16.6753L5.595 23.0391L5.625 16.875C5.625 16.3575 5.205 15.9375 4.6875 15.9375C4.17 15.9375 3.75 16.3575 3.75 16.875V25.3125C3.75 25.59 3.86436 25.814 4.04623 25.9678C4.21588 26.1412 4.45216 26.25 4.71373 26.25H13.125C13.6425 26.25 14.0625 25.83 14.0625 25.3125C14.0625 24.795 13.6425 24.375 13.125 24.375ZM25.2863 3.75H16.875C16.3575 3.75 15.9375 4.17 15.9375 4.6875C15.9375 5.205 16.3575 5.625 16.875 5.625H23.0897L16.7156 11.9991L18.0412 13.3247L24.405 6.96093L24.375 13.125C24.375 13.6425 24.795 14.0625 25.3125 14.0625C25.83 14.0625 26.25 13.6425 26.25 13.125V4.6875C26.25 4.41 26.1356 4.18593 25.9537 4.03123C25.7841 3.85779 25.5478 3.75 25.2863 3.75Z" fill="#ccc"/>
</svg>
